# xmcd CD database file
#
# Track frame offsets:
#       150
#       16113
#       31638
#       48838
#       63601
#
# Disc length: 1083 seconds
#
# Revision: 2
# Processed by: cddbd v1.5.2PL0 Copyright (c) Steve Scherf et al.
# Submitted via: jack 3.1.1
#
DISCID=30043905
DTITLE=Blind Horney Toads/Wrong Side Of The Road
DYEAR=2016
DGENRE=Bluegrass
TTITLE0=The Final Countdown
TTITLE1=Africa
TTITLE2=Living On A Prayer
TTITLE3=If You Leave Me Now
TTITLE4=Don't Stop Me Now
EXTD=
EXTT0=
EXTT1=
EXTT2=
EXTT3=
EXTT4=
PLAYORDER=
